<svg xmlns="http://www.w3.org/2000/svg" version="1.1" viewBox="-5.0 -10.0 110.0 135.0">
    <path d="m17.969 93.75c-0.50781-7.3711 1.5703-27.164 2.9688-30.434 0.60938-1.4219 2.0078-2.5391 3.9023-3.4414 2.5781-1.2227 6.1055-2.0938 9.5195-3.1016 2.7305-0.80859 5.3828-1.707 7.3555-2.9922 1.7734-1.1562 2.9766-2.6328 3.0195-4.7109-5.5508-1.5547-10.105-5.5-12.48-10.652-0.53906 0.21484-1.1211 0.33594-1.7344 0.33594-2.5586 0-4.6367-2.0781-4.6367-4.6367 0-2.5508 2.0586-4.6172 4.6016-4.6367 0.0625-1.5859 0.3125-3.1172 0.73047-4.5859 0.039062-4.4609 2.4453-9.3047 5.9805-13.035 3.5781-3.7734 8.2969-6.3828 12.801-6.3828 4.5078 0 9.2266 2.6133 12.805 6.3828 3.5391 3.7305 5.9453 8.5742 5.9844 13.035 0.44141 1.5469 0.69531 3.1719 0.74219 4.8516 2.5391 0.023437 4.5938 2.0938 4.5938 4.6367 0 2.5586-2.0781 4.6367-4.6367 4.6367-0.65234 0-1.2734-0.13281-1.8359-0.37891-2.3828 5.0078-6.8398 8.8438-12.258 10.398 0.21875 1.8047 1.3633 3.1289 2.9844 4.1875 1.9727 1.2891 4.625 2.1836 7.3555 2.9922 3.4141 1.0078 6.9453 1.8789 9.5195 3.1016 1.8984 0.89844 3.293 2.0156 3.9023 3.4375 1.3984 3.2695 3.3945 23.621 2.8828 30.996 0 0.019532 0 0.039063-0.003906 0.054688-0.027344 0.40625-0.36719 0.72656-0.77734 0.72656h-0.054687-62.391-0.054688c-0.41016 0-0.75-0.32031-0.77734-0.72656-0.003906-0.019532-0.003906-0.039063-0.003906-0.054688zm28.316-44.32c-0.16406 2.4531-1.5742 4.2578-3.7148 5.6562-2.0859 1.3594-4.8828 2.3281-7.7656 3.1797-3.3281 0.98828-6.7773 1.8242-9.293 3.0195-1.4922 0.71094-2.6562 1.5234-3.1328 2.6445-1.3281 3.0977-3.2266 21.383-2.8867 29.039h10.98v-5.4844-12.484c0-0.42969 0.35156-0.78125 0.78125-0.78125 0.42969 0 0.78125 0.35156 0.78125 0.78125v8.0234c2.2227-4.832 5.8984-9.168 10.16-11.812 2.1797-1.3555 4.7734-2.0469 7.2773-2.8516 2.3164-0.74219 4.5547-1.5781 6.2227-3.2852 2.3984-2.457 3.0859-6.0312 3.7852-9.4688-0.70312-0.33594-1.3594-0.69141-1.9609-1.082-1.9844-1.293-3.3398-2.9414-3.6602-5.125-1.2461 0.25-2.5391 0.38281-3.8555 0.38281-1.2734 0-2.5117-0.12109-3.7148-0.35156zm-12.926-12.395c2.6797 6.5547 9.1211 11.184 16.641 11.184 1.5078 0 2.9766-0.1875 4.3789-0.53906 5.5078-1.3828 10.008-5.3047 12.18-10.445 0.86719-2.0547 1.3672-4.3047 1.4062-6.6641 0.003906-0.10547 0.003906-0.21484 0.003906-0.32031 0-1.1992-0.11719-2.3711-0.33984-3.5078-0.41016 0.25781-0.93359 0.49609-1.5664 0.71094-3.2617 1.0938-9.6641 1.6016-16.07 1.5586-6.3945-0.042969-12.789-0.63672-16.051-1.6875-0.625-0.20312-1.1484-0.42969-1.5547-0.66406-0.23438 1.1602-0.35938 2.3594-0.35938 3.5898v0.066406c0.007812 2.375 0.47656 4.6445 1.3281 6.7188zm-2.875-6.0039c-1.6797 0.019531-3.0391 1.3867-3.0391 3.0742 0 1.6953 1.3789 3.0742 3.0742 3.0742 0.39844 0 0.78516-0.078126 1.1367-0.21875-0.68359-1.8594-1.0898-3.8516-1.1719-5.9297zm36.738-6.0352c0-4.1328-2.2734-8.6133-5.5547-12.07-3.2695-3.4453-7.5508-5.8984-11.668-5.8984s-8.3984 2.4492-11.664 5.8984c-3.2734 3.4531-5.5469 7.9258-5.5547 12.055 0.007812 0.011719 0.039062 0.058593 0.066406 0.085937 0.050782 0.050782 0.11328 0.10156 0.17969 0.14844 0.32422 0.22656 0.80469 0.42969 1.3984 0.625 3.1641 1.0195 9.3711 1.5703 15.582 1.6133 6.1992 0.039063 12.398-0.41797 15.562-1.4766 0.58984-0.19531 1.0625-0.41016 1.3828-0.65625 0.14062-0.10547 0.26953-0.19141 0.26953-0.32031zm1.0391 12.195c0.375 0.16406 0.78906 0.25391 1.2227 0.25391 1.6953 0 3.0742-1.3789 3.0742-3.0742 0-1.6914-1.3672-3.0625-3.0547-3.0742-0.10938 2.0664-0.53906 4.0508-1.2422 5.8984zm12.254 55.773c0.34766-7.6914-1.4766-26.504-2.8047-29.602-0.47656-1.1211-1.6367-1.9297-3.1328-2.6445-2.5156-1.1953-5.9648-2.0312-9.293-3.0156-1.5-0.44531-2.9766-0.91797-4.3398-1.4648-0.75391 3.6289-1.6016 7.3359-4.1328 9.9297-1.8438 1.8828-4.3008 2.8555-6.8672 3.6797-2.3789 0.76172-4.8516 1.3984-6.9297 2.6875-5.1406 3.1953-9.3789 9.0078-10.984 15.062v5.3672zm-9.8945-24.883c0.09375-0.42188 0.50781-0.69141 0.92969-0.59766 0.42188 0.089844 0.6875 0.50781 0.59766 0.92969-0.60156 2.7461-1.1914 5.625-3.2305 7.5938-1.3789 1.332-3.2109 2.0234-5.125 2.6016-1.7344 0.52734-3.5391 0.96094-5.0547 1.8516-3.7461 2.1953-6.8359 6.207-7.9844 10.371-0.11719 0.41406-0.54297 0.66406-0.96094 0.54688-0.41406-0.11719-0.66406-0.54297-0.54688-0.96094 1.2539-4.543 4.6172-8.9141 8.6992-11.309 1.6172-0.94531 3.5391-1.4336 5.3906-1.9922 1.6719-0.50781 3.2891-1.0703 4.4922-2.2266 1.8164-1.7578 2.2539-4.3594 2.7891-6.8047z" fill-rule="evenodd"/>
</svg>
